<?xml version="1.0" encoding="UTF-8"?>
<svg version="1.1" xmlns="http://www.w3.org/2000/svg" width="64" height="64">
<path d="M0 0 C3.41142371 2.51795559 6.32725552 5.35236677 8.625 8.9375 C8.625 9.9275 8.625 10.9175 8.625 11.9375 C9.615 11.9375 10.605 11.9375 11.625 11.9375 C11.604375 12.90171875 11.58375 13.8659375 11.5625 14.859375 C11.30327154 21.86495534 11.30327154 21.86495534 14.40234375 27.6875 C16.45479283 28.63763918 18.46475714 29.28368417 20.625 29.9375 C22.625 31.9375 22.625 31.9375 22.625 34.9375 C21.635 35.4325 21.635 35.4325 20.625 35.9375 C20.04240332 37.95458015 20.04240332 37.95458015 19.8125 40.3125 C19.70292969 41.10398438 19.59335937 41.89546875 19.48046875 42.7109375 C19.66307878 45.52411911 20.57317958 46.11896149 22.625 47.9375 C22.625 50 22.625 50 21.625 51.9375 C15.57052267 55.32088439 8.18233417 55.0950132 1.41796875 55.10546875 C0.26981438 55.11046135 0.26981438 55.11046135 -0.90153503 55.11555481 C-2.51255701 55.12058961 -4.1235893 55.12296421 -5.73461914 55.12280273 C-8.17026371 55.12498456 -10.6054512 55.14316418 -13.04101562 55.16210938 C-30.00696699 55.22485537 -30.00696699 55.22485537 -36.375 52.9375 C-38.375 50.9375 -38.375 50.9375 -38.421875 48.66015625 C-38.32390625 47.78230469 -38.2259375 46.90445313 -38.125 46 C-38.03734375 45.12472656 -37.9496875 44.24945313 -37.859375 43.34765625 C-37.375 40.9375 -37.375 40.9375 -35.375 37.9375 C-33.43554688 37.64453125 -33.43554688 37.64453125 -31.09375 37.75 C-29.83111328 37.78480469 -29.83111328 37.78480469 -28.54296875 37.8203125 C-25.875 37.9375 -25.875 37.9375 -23.20703125 38.0546875 C-21.94439453 38.08949219 -21.94439453 38.08949219 -20.65625 38.125 C-19.88345703 38.15980469 -19.11066406 38.19460937 -18.31445312 38.23046875 C-17.67443359 38.13378906 -17.03441406 38.03710938 -16.375 37.9375 C-15.715 36.9475 -15.055 35.9575 -14.375 34.9375 C-15.303125 35.02 -16.23125 35.1025 -17.1875 35.1875 C-18.239375 35.105 -19.29125 35.0225 -20.375 34.9375 C-21.375 33.60416667 -22.375 32.27083333 -23.375 30.9375 C-26.50086875 30.60352213 -26.50086875 30.60352213 -29.375 30.9375 C-30.41090199 25.88747778 -30.47751672 21.06333611 -30.375 15.9375 C-29.715 15.9375 -29.055 15.9375 -28.375 15.9375 C-28.2925 15.07125 -28.21 14.205 -28.125 13.3125 C-26.91341825 7.86038211 -24.32599897 4.34754082 -19.875 1.0625 C-13.71226178 -2.51511956 -6.62865101 -2.08679754 0 0 Z M-7.375 3.9375 C-6.715 5.2575 -6.055 6.5775 -5.375 7.9375 C-4.055 7.6075 -2.735 7.2775 -1.375 6.9375 C-1.705 6.2775 -2.035 5.6175 -2.375 4.9375 C-4.90233235 4.28194881 -4.90233235 4.28194881 -7.375 3.9375 Z M-17 6.4375 C-17.45375 6.9325 -17.9075 7.4275 -18.375 7.9375 C-16.39963255 7.58963292 -16.39963255 7.58963292 -14.375 6.9375 C-14.045 6.2775 -13.715 5.6175 -13.375 4.9375 C-15.49864481 4.71140663 -15.49864481 4.71140663 -17 6.4375 Z M6.625 27.9375 C6.2125 28.700625 5.8 29.46375 5.375 30.25 C3.66624191 32.8741642 2.21482247 34.24071976 -0.375 35.9375 C1.15809378 37.47059378 2.55681814 37.10672657 4.6875 37.125 C9.28490643 37.08816181 13.22117656 36.21861227 17.625 34.9375 C15.03570498 31.05355748 13.01786971 31.11416153 8.625 29.9375 C7.965 29.2775 7.305 28.6175 6.625 27.9375 Z " fill="#805A85" transform="translate(40.375,7.0625)"/>
<path d="M0 0 C3.2267706 1.36893298 5.42090567 3.37794656 6.8125 6.625 C7.58480557 13.57575009 6.96600095 17.4872979 4.0625 23.875 C3.72390041 26.20757494 3.3892961 28.54074212 3.0625 30.875 C0.71397472 32.04926264 -0.67524065 31.99008173 -3.2890625 31.97265625 C-4.13984375 31.96943359 -4.990625 31.96621094 -5.8671875 31.96289062 C-6.75664062 31.95451172 -7.64609375 31.94613281 -8.5625 31.9375 C-9.90828125 31.93073242 -9.90828125 31.93073242 -11.28125 31.92382812 C-13.50006648 31.91202591 -15.71875018 31.89556155 -17.9375 31.875 C-17.9375 33.855 -17.9375 35.835 -17.9375 37.875 C-6.54583078 44.71000153 15.75951925 41.92046359 28.0625 38.875 C30.90271433 37.81817606 31.92768714 37.13539009 34.0625 34.875 C34.56419415 31.70573436 34.56419415 31.70573436 34.0625 28.875 C33.33804688 29.019375 32.61359375 29.16375 31.8671875 29.3125 C21.4079039 31.32068245 21.4079039 31.32068245 17.0625 30.875 C16.4025 30.215 15.7425 29.555 15.0625 28.875 C15.5575 27.39 15.5575 27.39 16.0625 25.875 C16.5575 26.865 16.5575 26.865 17.0625 27.875 C18.49989513 27.90212066 19.93743863 27.92145067 21.375 27.9375 C22.17550781 27.94910156 22.97601563 27.96070312 23.80078125 27.97265625 C26.23111334 27.97157855 26.23111334 27.97157855 29.0625 26.875 C31.39549825 26.83545766 33.72958189 26.83098268 36.0625 26.875 C36.02769531 27.56207031 35.99289063 28.24914062 35.95703125 28.95703125 C35.91642578 30.30861328 35.91642578 30.30861328 35.875 31.6875 C35.84019531 32.58082031 35.80539063 33.47414062 35.76953125 34.39453125 C36.1170035 37.33646294 36.89662641 37.97630766 39.0625 39.875 C39.0625 41.9375 39.0625 41.9375 38.0625 43.875 C32.00802267 47.25838439 24.61983417 47.0325132 17.85546875 47.04296875 C16.70731438 47.04796135 16.70731438 47.04796135 15.53596497 47.05305481 C13.92494299 47.05808961 12.3139107 47.06046421 10.70288086 47.06030273 C8.26723629 47.06248456 5.8320488 47.08066418 3.39648438 47.09960938 C-13.56946699 47.16235537 -13.56946699 47.16235537 -19.9375 44.875 C-21.9375 42.875 -21.9375 42.875 -21.984375 40.59765625 C-21.88640625 39.71980469 -21.7884375 38.84195313 -21.6875 37.9375 C-21.59984375 37.06222656 -21.5121875 36.18695313 -21.421875 35.28515625 C-20.9375 32.875 -20.9375 32.875 -18.9375 29.875 C-16.99804688 29.58203125 -16.99804688 29.58203125 -14.65625 29.6875 C-13.81449219 29.71070312 -12.97273437 29.73390625 -12.10546875 29.7578125 C-9.4375 29.875 -9.4375 29.875 -6.76953125 29.9921875 C-5.92777344 30.01539062 -5.08601563 30.03859375 -4.21875 30.0625 C-3.44595703 30.09730469 -2.67316406 30.13210937 -1.87695312 30.16796875 C-1.23693359 30.07128906 -0.59691406 29.97460938 0.0625 29.875 C0.7225 28.885 1.3825 27.895 2.0625 26.875 C0.6703125 26.99875 0.6703125 26.99875 -0.75 27.125 C-3.9375 26.875 -3.9375 26.875 -5.8125 25 C-6.9375 22.875 -6.9375 22.875 -6.9375 20.875 C-8.5875 20.875 -10.2375 20.875 -11.9375 20.875 C-11.9375 17.245 -11.9375 13.615 -11.9375 9.875 C-11.2775 9.875 -10.6175 9.875 -9.9375 9.875 C-9.6075 8.555 -9.2775 7.235 -8.9375 5.875 C-7.9475 6.535 -6.9575 7.195 -5.9375 7.875 C-5.49609375 10.5546875 -5.49609375 10.5546875 -5.375 13.75 C-5.21568701 17.6797203 -4.98256102 20.47477806 -2.9375 23.875 C-0.49269921 23.68671228 -0.49269921 23.68671228 2.0625 22.875 C4.27471479 19.64350535 4.3605755 16.72153303 4.375 12.875 C4.39175781 11.84375 4.40851562 10.8125 4.42578125 9.75 C4.02331368 6.56488032 3.19680263 5.21766462 1.0625 2.875 C-2.20704202 3.43871414 -3.76325883 4.37462266 -5.9375 6.875 C-5.625 4.5 -5.625 4.5 -4.9375 1.875 C-1.9375 -0.125 -1.9375 -0.125 0 0 Z " fill="#403043" transform="translate(23.9375,15.125)"/>
<path d="M0 0 C4.59821295 2.64461227 7.40435334 5.38796631 9.85546875 10.0859375 C9.85546875 11.0759375 9.85546875 12.0659375 9.85546875 13.0859375 C10.84546875 13.0859375 11.83546875 13.0859375 12.85546875 13.0859375 C12.85546875 17.3759375 12.85546875 21.6659375 12.85546875 26.0859375 C17.31046875 28.0659375 17.31046875 28.0659375 21.85546875 30.0859375 C21.85546875 31.0759375 21.85546875 32.0659375 21.85546875 33.0859375 C21.19546875 32.4259375 20.53546875 31.7659375 19.85546875 31.0859375 C17.5463547 30.2385562 15.21072202 29.56172406 12.8515625 28.8671875 C10.85546875 28.0859375 10.85546875 28.0859375 9.85546875 26.0859375 C8.98921875 27.7875 8.98921875 27.7875 8.10546875 29.5234375 C6.14440974 32.90884464 6.14440974 32.90884464 3.91796875 34.2734375 C0.51296106 33.96389135 -0.81217934 32.5378972 -3.14453125 30.0859375 C-6.49856862 23.93686899 -7.02945562 18.15714559 -5.08203125 11.3984375 C-4.19755468 8.27328695 -3.96876195 7.02536075 -5.14453125 4.0859375 C-4.48453125 4.4159375 -3.82453125 4.7459375 -3.14453125 5.0859375 C-3.14453125 5.7459375 -3.14453125 6.4059375 -3.14453125 7.0859375 C-2.54640625 6.9209375 -1.94828125 6.7559375 -1.33203125 6.5859375 C0.85546875 6.0859375 0.85546875 6.0859375 3.85546875 6.0859375 C-1.16268697 2.90002392 -5.07688009 1.40480682 -11.03125 2.40234375 C-15.70836779 3.91527464 -18.44920401 7.04294664 -21.14453125 11.0859375 C-21.80453125 11.0859375 -22.46453125 11.0859375 -23.14453125 11.0859375 C-22.66753244 6.79294824 -20.346501 4.80065098 -17.14453125 2.0859375 C-11.55251689 -0.97384394 -6.02142528 -2.56650913 0 0 Z " fill="#201E21" transform="translate(38.14453125,7.9140625)"/>
<path d="M0 0 C3.41142371 2.51795559 6.32725552 5.35236677 8.625 8.9375 C8.625 9.9275 8.625 10.9175 8.625 11.9375 C9.615 11.9375 10.605 11.9375 11.625 11.9375 C11.604375 12.90171875 11.58375 13.8659375 11.5625 14.859375 C11.30327154 21.86495534 11.30327154 21.86495534 14.40234375 27.6875 C16.45479283 28.63763918 18.46475714 29.28368417 20.625 29.9375 C22.625 31.9375 22.625 31.9375 22.625 34.9375 C21.635 35.2675 20.645 35.5975 19.625 35.9375 C18.28573801 34.94545408 16.95401064 33.94323778 15.625 32.9375 C14.2373135 32.45506211 12.84049165 31.99842955 11.4375 31.5625 C9.33203125 30.83203125 9.33203125 30.83203125 7.625 29.9375 C6.625 27.25 6.625 27.25 6.625 24.9375 C6.86089844 25.57171875 7.09679688 26.2059375 7.33984375 26.859375 C8.44571426 29.11366694 8.44571426 29.11366694 10.75390625 29.765625 C11.55699219 29.90484375 12.36007813 30.0440625 13.1875 30.1875 C13.99316406 30.33703125 14.79882812 30.4865625 15.62890625 30.640625 C17.45351173 30.96201831 17.45351173 30.96201831 18.625 30.9375 C18.05910156 30.75574219 17.49320313 30.57398437 16.91015625 30.38671875 C16.17667969 30.13535156 15.44320312 29.88398437 14.6875 29.625 C13.95660156 29.38136719 13.22570313 29.13773438 12.47265625 28.88671875 C10.625 27.9375 10.625 27.9375 9.625 24.9375 C9.71021741 23.03797654 9.86229084 21.14086427 10.0625 19.25 C10.16433594 18.25613281 10.26617187 17.26226563 10.37109375 16.23828125 C10.45488281 15.47902344 10.53867187 14.71976563 10.625 13.9375 C9.635 13.9375 8.645 13.9375 7.625 13.9375 C7.13 12.720625 6.635 11.50375 6.125 10.25 C3.69939778 5.44149982 0.62301654 2.90393274 -4.375 0.9375 C-9.89660952 -0.15630455 -14.50837025 1.27462712 -19.375 3.9375 C-22.41557572 6.58147889 -24.09872114 8.10866342 -25.375 11.9375 C-24.653125 11.195 -23.93125 10.4525 -23.1875 9.6875 C-22.259375 8.78 -21.33125 7.8725 -20.375 6.9375 C-19.26125 5.82375 -19.26125 5.82375 -18.125 4.6875 C-14.28969391 2.24685067 -10.90406333 1.58507289 -6.375 1.9375 C-3.49367274 2.96313802 -0.95338583 4.30054115 1.625 5.9375 C1.625 6.9275 1.625 7.9175 1.625 8.9375 C-0.1328125 7.92838542 -1.890625 6.91927083 -3.6484375 5.91015625 C-4.87298475 5.22030949 -6.11789077 4.56605462 -7.375 3.9375 C-7.705 4.5975 -8.035 5.2575 -8.375 5.9375 C-9.695 5.6075 -11.015 5.2775 -12.375 4.9375 C-12.705 6.5875 -13.035 8.2375 -13.375 9.9375 C-14.035 9.6075 -14.695 9.2775 -15.375 8.9375 C-15.375 7.9475 -15.375 6.9575 -15.375 5.9375 C-17.0824998 7.21812485 -18.74873596 8.55517557 -20.375 9.9375 C-20.375 10.5975 -20.375 11.2575 -20.375 11.9375 C-19.715 11.2775 -19.055 10.6175 -18.375 9.9375 C-15.68972192 10.11074375 -14.63079306 10.66798146 -12.7734375 12.625 C-10.13934043 16.98082533 -10.75248179 22.02288254 -11.375 26.9375 C-12.4478198 29.45467893 -13.53643408 30.86911334 -15.375 32.9375 C-17.75 32.6875 -17.75 32.6875 -20.375 31.9375 C-22.97373591 28.04835729 -22.78814299 23.93238328 -23.03125 19.3984375 C-23.14737389 16.76346806 -23.14737389 16.76346806 -25.375 14.9375 C-25.705 15.9275 -26.035 16.9175 -26.375 17.9375 C-27.035 17.9375 -27.695 17.9375 -28.375 17.9375 C-28.375 21.5675 -28.375 25.1975 -28.375 28.9375 C-26.725 28.9375 -25.075 28.9375 -23.375 28.9375 C-26.375 30.9375 -26.375 30.9375 -29.375 30.9375 C-30.41090199 25.88747778 -30.47751672 21.06333611 -30.375 15.9375 C-29.715 15.9375 -29.055 15.9375 -28.375 15.9375 C-28.2925 15.07125 -28.21 14.205 -28.125 13.3125 C-26.91341825 7.86038211 -24.32599897 4.34754082 -19.875 1.0625 C-13.71226178 -2.51511956 -6.62865101 -2.08679754 0 0 Z " fill="#EBEBEB" transform="translate(40.375,7.0625)"/>
<path d="M0 0 C3.2267706 1.36893298 5.42090567 3.37794656 6.8125 6.625 C7.58480557 13.57575009 6.96600095 17.4872979 4.0625 23.875 C3.72390041 26.20757494 3.3892961 28.54074212 3.0625 30.875 C0.71397472 32.04926264 -0.67524065 31.99008173 -3.2890625 31.97265625 C-4.13984375 31.96943359 -4.990625 31.96621094 -5.8671875 31.96289062 C-6.75664062 31.95451172 -7.64609375 31.94613281 -8.5625 31.9375 C-9.90828125 31.93073242 -9.90828125 31.93073242 -11.28125 31.92382812 C-13.50006648 31.91202591 -15.71875018 31.89556155 -17.9375 31.875 C-17.9375 33.855 -17.9375 35.835 -17.9375 37.875 C-14.40338679 39.99546792 -10.99356165 40.40699289 -6.9375 40.875 C-8.4225 41.37 -8.4225 41.37 -9.9375 41.875 C-9.9375 42.865 -9.9375 43.855 -9.9375 44.875 C-16.21442308 46.22884615 -16.21442308 46.22884615 -19.875 44.4375 C-20.555625 43.921875 -21.23625 43.40625 -21.9375 42.875 C-21.82307539 41.27004433 -21.69555306 39.66601881 -21.5625 38.0625 C-21.49289063 37.16917969 -21.42328125 36.27585938 -21.3515625 35.35546875 C-20.9375 32.875 -20.9375 32.875 -18.9375 29.875 C-16.99804688 29.58203125 -16.99804688 29.58203125 -14.65625 29.6875 C-13.81449219 29.71070312 -12.97273437 29.73390625 -12.10546875 29.7578125 C-9.4375 29.875 -9.4375 29.875 -6.76953125 29.9921875 C-5.92777344 30.01539062 -5.08601563 30.03859375 -4.21875 30.0625 C-3.44595703 30.09730469 -2.67316406 30.13210937 -1.87695312 30.16796875 C-1.23693359 30.07128906 -0.59691406 29.97460938 0.0625 29.875 C0.7225 28.885 1.3825 27.895 2.0625 26.875 C0.6703125 26.99875 0.6703125 26.99875 -0.75 27.125 C-3.9375 26.875 -3.9375 26.875 -5.8125 25 C-6.9375 22.875 -6.9375 22.875 -6.9375 20.875 C-8.5875 20.875 -10.2375 20.875 -11.9375 20.875 C-11.9375 17.245 -11.9375 13.615 -11.9375 9.875 C-11.2775 9.875 -10.6175 9.875 -9.9375 9.875 C-9.6075 8.555 -9.2775 7.235 -8.9375 5.875 C-7.9475 6.535 -6.9575 7.195 -5.9375 7.875 C-5.49609375 10.5546875 -5.49609375 10.5546875 -5.375 13.75 C-5.21568701 17.6797203 -4.98256102 20.47477806 -2.9375 23.875 C-0.49269921 23.68671228 -0.49269921 23.68671228 2.0625 22.875 C4.27471479 19.64350535 4.3605755 16.72153303 4.375 12.875 C4.39175781 11.84375 4.40851562 10.8125 4.42578125 9.75 C4.02331368 6.56488032 3.19680263 5.21766462 1.0625 2.875 C-2.20704202 3.43871414 -3.76325883 4.37462266 -5.9375 6.875 C-5.625 4.5 -5.625 4.5 -4.9375 1.875 C-1.9375 -0.125 -1.9375 -0.125 0 0 Z " fill="#392A3B" transform="translate(23.9375,15.125)"/>
<path d="M0 0 C2.3125 0.5625 2.3125 0.5625 5 2 C7.99329537 7.16085409 8.4767537 11.08825407 8 17 C7.03374806 20.17482782 6.34535035 21.65464965 4 24 C2.125 24 2.125 24 0 23 C-4.72649162 18.27350838 -4.47094687 13.49094768 -4.53125 7.0234375 C-3.90104182 3.43681151 -2.77981083 2.26135405 0 0 Z " fill="#EFEDED" transform="translate(38,16)"/>
<path d="M0 0 C3.41142371 2.51795559 6.32725552 5.35236677 8.625 8.9375 C8.625 9.9275 8.625 10.9175 8.625 11.9375 C9.615 11.9375 10.605 11.9375 11.625 11.9375 C11.604375 12.90171875 11.58375 13.8659375 11.5625 14.859375 C11.30327154 21.86495534 11.30327154 21.86495534 14.40234375 27.6875 C16.45479283 28.63763918 18.46475714 29.28368417 20.625 29.9375 C22.625 31.9375 22.625 31.9375 22.625 34.9375 C21.635 35.2675 20.645 35.5975 19.625 35.9375 C18.28573801 34.94545408 16.95401064 33.94323778 15.625 32.9375 C14.2373135 32.45506211 12.84049165 31.99842955 11.4375 31.5625 C9.33203125 30.83203125 9.33203125 30.83203125 7.625 29.9375 C6.625 27.25 6.625 27.25 6.625 24.9375 C6.86089844 25.57171875 7.09679688 26.2059375 7.33984375 26.859375 C8.44571426 29.11366694 8.44571426 29.11366694 10.75390625 29.765625 C11.55699219 29.90484375 12.36007813 30.0440625 13.1875 30.1875 C13.99316406 30.33703125 14.79882812 30.4865625 15.62890625 30.640625 C17.45351173 30.96201831 17.45351173 30.96201831 18.625 30.9375 C18.05910156 30.75574219 17.49320313 30.57398437 16.91015625 30.38671875 C16.17667969 30.13535156 15.44320312 29.88398437 14.6875 29.625 C13.95660156 29.38136719 13.22570313 29.13773438 12.47265625 28.88671875 C10.625 27.9375 10.625 27.9375 9.625 24.9375 C9.71021741 23.03797654 9.86229084 21.14086427 10.0625 19.25 C10.16433594 18.25613281 10.26617187 17.26226563 10.37109375 16.23828125 C10.45488281 15.47902344 10.53867187 14.71976563 10.625 13.9375 C9.635 13.9375 8.645 13.9375 7.625 13.9375 C7.13 12.720625 6.635 11.50375 6.125 10.25 C3.69939778 5.44149982 0.62301654 2.90393274 -4.375 0.9375 C-9.89660952 -0.15630455 -14.50837025 1.27462712 -19.375 3.9375 C-24.10342088 7.69874388 -25.57369016 11.34395893 -27.375 16.9375 C-28.035 16.9375 -28.695 16.9375 -29.375 16.9375 C-29.21 17.618125 -29.045 18.29875 -28.875 19 C-28.30410941 22.3539822 -28.30840977 25.54139805 -28.375 28.9375 C-26.725 28.9375 -25.075 28.9375 -23.375 28.9375 C-26.375 30.9375 -26.375 30.9375 -29.375 30.9375 C-30.41090199 25.88747778 -30.47751672 21.06333611 -30.375 15.9375 C-29.715 15.9375 -29.055 15.9375 -28.375 15.9375 C-28.2925 15.07125 -28.21 14.205 -28.125 13.3125 C-26.91341825 7.86038211 -24.32599897 4.34754082 -19.875 1.0625 C-13.71226178 -2.51511956 -6.62865101 -2.08679754 0 0 Z " fill="#F0F0F0" transform="translate(40.375,7.0625)"/>
<path d="M0 0 C2.475 1.485 2.475 1.485 5 3 C4.8125 4.875 4.8125 4.875 4 7 C-2.1728438 10.44953036 -9.67105601 10.1449706 -16.55859375 10.09765625 C-17.34774673 10.0962413 -18.13689972 10.09482635 -18.94996643 10.09336853 C-21.44585115 10.08781555 -23.94164285 10.07527208 -26.4375 10.0625 C-28.13997265 10.05747891 -29.84244673 10.05291707 -31.54492188 10.04882812 C-35.69664988 10.03786158 -39.84830922 10.02062991 -44 10 C-44 9.67 -44 9.34 -44 9 C-43.16750732 8.98541748 -42.33501465 8.97083496 -41.47729492 8.95581055 C-38.38510347 8.8947137 -35.29357918 8.82055444 -32.2019043 8.73754883 C-30.2070937 8.68798681 -28.21192743 8.65348867 -26.21679688 8.61914062 C-24.33637695 8.5659668 -24.33637695 8.5659668 -22.41796875 8.51171875 C-21.26063232 8.48553467 -20.1032959 8.45935059 -18.91088867 8.43237305 C-15.71225962 7.95726007 -14.98355076 7.42886936 -13 5 C-10.625 4.05078125 -10.625 4.05078125 -8 3.3125 C-6.700625 2.93544922 -6.700625 2.93544922 -5.375 2.55078125 C-3 2 -3 2 0 2 C0 1.34 0 0.68 0 0 Z " fill="#1E2328" transform="translate(58,52)"/>
<path d="M0 0 C4.61626714 2.65499594 7.27251715 5.45814923 9.85546875 10.0859375 C8.85546875 12.0859375 8.85546875 12.0859375 5.85546875 14.0859375 C5.60796875 13.4465625 5.36046875 12.8071875 5.10546875 12.1484375 C4.04465913 9.94192667 4.04465913 9.94192667 1.91796875 9.2734375 C-0.34195838 8.92906941 -0.34195838 8.92906941 -3.14453125 10.0859375 C-3.80453125 8.1059375 -4.46453125 6.1259375 -5.14453125 4.0859375 C-4.48453125 4.4159375 -3.82453125 4.7459375 -3.14453125 5.0859375 C-3.14453125 5.7459375 -3.14453125 6.4059375 -3.14453125 7.0859375 C-2.54640625 6.9209375 -1.94828125 6.7559375 -1.33203125 6.5859375 C0.85546875 6.0859375 0.85546875 6.0859375 3.85546875 6.0859375 C-1.16268697 2.90002392 -5.07688009 1.40480682 -11.03125 2.40234375 C-15.70836779 3.91527464 -18.44920401 7.04294664 -21.14453125 11.0859375 C-21.80453125 11.0859375 -22.46453125 11.0859375 -23.14453125 11.0859375 C-22.66753244 6.79294824 -20.346501 4.80065098 -17.14453125 2.0859375 C-11.55251689 -0.97384394 -6.02142528 -2.56650913 0 0 Z " fill="#1A1A1A" transform="translate(38.14453125,7.9140625)"/>
<path d="M0 0 C0.99 0.66 1.98 1.32 3 2 C3.44140625 4.6796875 3.44140625 4.6796875 3.5625 7.875 C3.7505174 13.24150819 3.7505174 13.24150819 6 18 C8.55519921 18.81171228 8.55519921 18.81171228 11 19 C11 19.66 11 20.32 11 21 C8.1875 21.25 8.1875 21.25 5 21 C3.125 19.125 3.125 19.125 2 17 C2 16.34 2 15.68 2 15 C0.35 15 -1.3 15 -3 15 C-3 11.37 -3 7.74 -3 4 C-2.34 4 -1.68 4 -1 4 C-0.67 2.68 -0.34 1.36 0 0 Z " fill="#111111" transform="translate(15,21)"/>
<path d="M0 0 C0.33 0 0.66 0 1 0 C1.29380531 8.66725664 1.29380531 8.66725664 -1 13 C-1.66 13.66 -2.32 14.32 -3 15 C-4.875 15 -4.875 15 -7 14 C-9.3125 11.125 -9.3125 11.125 -11 8 C-10.67 7.01 -10.34 6.02 -10 5 C-8.68 5 -7.36 5 -6 5 C-6 4.01 -6 3.02 -6 2 C-5.34 2 -4.68 2 -4 2 C-4 2.99 -4 3.98 -4 5 C-2.68 5 -1.36 5 0 5 C0 3.35 0 1.7 0 0 Z " fill="#EAD4D4" transform="translate(45,25)"/>
<path d="M0 0 C1.2065625 0.9590625 1.2065625 0.9590625 2.4375 1.9375 C2.1075 2.5975 1.7775 3.2575 1.4375 3.9375 C-0.3203125 2.92838542 -2.078125 1.91927083 -3.8359375 0.91015625 C-5.06048475 0.22030949 -6.30539077 -0.43394538 -7.5625 -1.0625 C-7.8925 -0.4025 -8.2225 0.2575 -8.5625 0.9375 C-9.8825 0.6075 -11.2025 0.2775 -12.5625 -0.0625 C-12.8925 1.5875 -13.2225 3.2375 -13.5625 4.9375 C-14.2225 4.6075 -14.8825 4.2775 -15.5625 3.9375 C-15.5625 2.9475 -15.5625 1.9575 -15.5625 0.9375 C-18.91361834 3.17157889 -20.37803956 4.19965824 -21.375 8.1875 C-21.436875 9.095 -21.49875 10.0025 -21.5625 10.9375 C-22.5525 11.2675 -23.5425 11.5975 -24.5625 11.9375 C-24.8925 11.2775 -25.2225 10.6175 -25.5625 9.9375 C-25.8925 10.9275 -26.2225 11.9175 -26.5625 12.9375 C-27.2225 12.9375 -27.8825 12.9375 -28.5625 12.9375 C-28.8925 14.2575 -29.2225 15.5775 -29.5625 16.9375 C-29.5625 15.2875 -29.5625 13.6375 -29.5625 11.9375 C-28.9025 11.9375 -28.2425 11.9375 -27.5625 11.9375 C-27.2325 9.9575 -26.9025 7.9775 -26.5625 5.9375 C-25.5725 5.9375 -24.5825 5.9375 -23.5625 5.9375 C-22.05852124 4.46274273 -22.05852124 4.46274273 -20.6875 2.5625 C-15.17544945 -4.09508673 -7.29044129 -4.85453555 0 0 Z " fill="#969197" transform="translate(40.5625,12.0625)"/>
<path d="M0 0 C0.33 0.66 0.66 1.32 1 2 C-2.47665095 3.06888524 -5.67137478 3.11475767 -9.296875 3.09765625 C-10.50214844 3.09443359 -11.70742188 3.09121094 -12.94921875 3.08789062 C-14.20347656 3.07951172 -15.45773438 3.07113281 -16.75 3.0625 C-18.01972656 3.05798828 -19.28945313 3.05347656 -20.59765625 3.04882812 C-23.73181836 3.03704556 -26.86588541 3.02059416 -30 3 C-29 1 -29 1 -28 0 C-24.07536187 -0.38527708 -20.12723362 -0.47058969 -16.1875 -0.625 C-15.08083984 -0.6765625 -13.97417969 -0.728125 -12.83398438 -0.78125 C-11.23586914 -0.84699219 -11.23586914 -0.84699219 -9.60546875 -0.9140625 C-8.62731201 -0.9548291 -7.64915527 -0.9955957 -6.64135742 -1.03759766 C-4.19992183 -1.00284573 -2.28728182 -0.84211631 0 0 Z " fill="#2C3437" transform="translate(45,58)"/>
<path d="M0 0 C0 0.66 0 1.32 0 2 C-0.72445312 2.08636719 -1.44890625 2.17273438 -2.1953125 2.26171875 C-8.68278344 3.20456453 -12.45103651 4.21775634 -17 9 C-17.99 10.485 -17.99 10.485 -19 12 C-19.66 12 -20.32 12 -21 12 C-20.52300119 7.70701074 -18.20196975 5.71471348 -15 3 C-9.71322793 0.10723793 -5.86374251 -0.30861803 0 0 Z " fill="#202020" transform="translate(36,7)"/>
<path d="M0 0 C0.33 0.66 0.66 1.32 1 2 C3.34907875 2.68931344 3.34907875 2.68931344 6.0625 3.125 C6.98160156 3.29257812 7.90070312 3.46015625 8.84765625 3.6328125 C9.91306641 3.81457031 9.91306641 3.81457031 11 4 C11 4.99 11 5.98 11 7 C4.72307692 8.35384615 4.72307692 8.35384615 1.0625 6.5625 C0.381875 6.046875 -0.29875 5.53125 -1 5 C-0.67 3.35 -0.34 1.7 0 0 Z " fill="#2C3435" transform="translate(3,53)"/>
<path d="M0 0 C0.23589844 0.63421875 0.47179688 1.2684375 0.71484375 1.921875 C1.82071426 4.17616694 1.82071426 4.17616694 4.12890625 4.828125 C4.93199219 4.96734375 5.73507813 5.1065625 6.5625 5.25 C7.36816406 5.39953125 8.17382812 5.5490625 9.00390625 5.703125 C10.82851173 6.02451831 10.82851173 6.02451831 12 6 C11.67 5.34 11.34 4.68 11 4 C12.9375 4.75 12.9375 4.75 15 6 C15.75 8.125 15.75 8.125 16 10 C15.01 10.33 14.02 10.66 13 11 C11.66073801 10.00795408 10.32901064 9.00573778 9 8 C7.6123135 7.51756211 6.21549165 7.06092955 4.8125 6.625 C2.70703125 5.89453125 2.70703125 5.89453125 1 5 C0 2.3125 0 2.3125 0 0 Z " fill="#F1F1F1" transform="translate(47,32)"/>
<path d="M0 0 C1.32 0.66 2.64 1.32 4 2 C3.67 3.65 3.34 5.3 3 7 C1.35 6.67 -0.3 6.34 -2 6 C-1.125 1.125 -1.125 1.125 0 0 Z " fill="#121212" transform="translate(23,28)"/>
<path d="M0 0 C0.99 0.495 0.99 0.495 2 1 C2 1.66 2 2.32 2 3 C2.53625 2.773125 3.0725 2.54625 3.625 2.3125 C7.1654614 1.84664982 9.05655163 3.10311105 12 5 C12.875 7.1875 12.875 7.1875 13 9 C12.01 9.495 12.01 9.495 11 10 C10.7525 9.360625 10.505 8.72125 10.25 8.0625 C9.18919038 5.85598917 9.18919038 5.85598917 7.0625 5.1875 C4.80257287 4.84313191 4.80257287 4.84313191 2 6 C1.34 4.02 0.68 2.04 0 0 Z " fill="#403C40" transform="translate(33,12)"/>
<path d="M0 0 C2.76912375 1.17477977 4.21673869 2.50187832 6.0625 4.875 C6.3125 7.625 6.3125 7.625 6.0625 9.875 C5.4025 8.885 4.7425 7.895 4.0625 6.875 C3.06862666 5.53709359 2.0698108 4.20281878 1.0625 2.875 C-2.20704202 3.43871414 -3.76325883 4.37462266 -5.9375 6.875 C-5.625 4.5 -5.625 4.5 -4.9375 1.875 C-1.9375 -0.125 -1.9375 -0.125 0 0 Z " fill="#131113" transform="translate(23.9375,15.125)"/>
<path d="M0 0 C0.66 0 1.32 0 2 0 C2 1.32 2 2.64 2 4 C2.99 4.33 3.98 4.66 5 5 C4.01 5 3.02 5 2 5 C2 6.32 2 7.64 2 9 C1.34 9 0.68 9 0 9 C0 7.68 0 6.36 0 5 C-0.99 5 -1.98 5 -3 5 C-3 4.34 -3 3.68 -3 3 C-2.01 3 -1.02 3 0 3 C0 2.01 0 1.02 0 0 Z " fill="#FE0909" transform="translate(39,27)"/>
<path d="M0 0 C2 3 2 3 2 5 C2.99 5 3.98 5 5 5 C5 5.66 5 6.32 5 7 C6.32 7.33 7.64 7.66 9 8 C1.25 7.25 1.25 7.25 -1 5 C-0.625 2.375 -0.625 2.375 0 0 Z " fill="#171718" transform="translate(3,53)"/>
<path d="M0 0 C5.29441695 -0.50423019 7.81413519 0.81076967 12 4 C11.67 4.66 11.34 5.32 11 6 C9.39125 5.071875 9.39125 5.071875 7.75 4.125 C5.20219016 2.6676321 2.64740645 1.27075509 0 0 Z " fill="#EBEBEB" transform="translate(31,10)"/>
</svg>
